<svg width="32" height="32" viewBox="0 0 32 32" fill="none" xmlns="http://www.w3.org/2000/svg">
<mask id="mask0_105102_3610" style="mask-type:alpha" maskUnits="userSpaceOnUse" x="0" y="0" width="32" height="32">
<rect width="32" height="32" fill="#D9D9D9"/>
</mask>
<g mask="url(#mask0_105102_3610)">
<path d="M10.4334 17.3334L16.9667 23.8667C17.2334 24.1334 17.3611 24.4445 17.35 24.8C17.3389 25.1556 17.2 25.4667 16.9334 25.7334C16.6667 25.9778 16.3556 26.1056 16 26.1167C15.6445 26.1278 15.3334 26 15.0667 25.7334L6.26669 16.9334C6.13336 16.8 6.03891 16.6556 5.98336 16.5C5.9278 16.3445 5.90002 16.1778 5.90002 16C5.90002 15.8222 5.9278 15.6556 5.98336 15.5C6.03891 15.3445 6.13336 15.2 6.26669 15.0667L15.0667 6.26669C15.3111 6.02225 15.6167 5.90002 15.9834 5.90002C16.35 5.90002 16.6667 6.02225 16.9334 6.26669C17.2 6.53336 17.3334 6.85002 17.3334 7.21669C17.3334 7.58336 17.2 7.90002 16.9334 8.16669L10.4334 14.6667H25.3334C25.7111 14.6667 26.0278 14.7945 26.2834 15.05C26.5389 15.3056 26.6667 15.6222 26.6667 16C26.6667 16.3778 26.5389 16.6945 26.2834 16.95C26.0278 17.2056 25.7111 17.3334 25.3334 17.3334H10.4334Z" fill="#70E61C"/>
</g>
</svg>
